<?xml version="1.0" encoding="UTF-8"?>
<svg id="Layer_1" data-name="Layer 1" xmlns="http://www.w3.org/2000/svg" version="1.1" viewBox="0 0 119.7 138.3">
  <defs>
    <style>
      .cls-1 {
        fill: none;
      }

      .cls-1, .cls-2, .cls-3 {
        stroke-width: 0px;
      }

      .cls-2 {
        fill: #428174;
      }

      .cls-3 {
        fill: #f58220;
      }
    </style>
  </defs>
  <g>
    <path class="cls-2" d="M10.7,75.1c-.2-.1-.5-.2-.4,0,.7,9.3-2.7,14.9,10.4,18.2.2,0,.4,0,.4-.2,2.5-6.6-1-9.7-10.4-18.1Z"/>
    <path class="cls-2" d="M35,69.3c-.4-1.8-.9-3.8-1.3-5.9-9.8,13.5-13.1,18.3-8.2,25.8,12.7-6.4,11.5-11.5,9.5-19.9Z"/>
    <path class="cls-2" d="M82.1,21.7c1.8.8,2.9,2.1,3,3.7,0,.6,0,1.3-.3,1.8.7,1.6,1.2,3.3,1.7,5.1h.1c1.2-.5,2.2-1.2,3.1-2,3.5-4.7.7-11.3-4.8-13.8-1.4-.6-3-1.1-4.9-1.6-1.1-.2-2.2-.3-3.4-.4,2,2.2,3.8,4.7,5.3,7.3Z"/>
    <path class="cls-2" d="M102,33.6c-1.1-.3-2.1-.5-3.1-.7-4-.2-7.5,1.5-10.7,5.3,0,0,0,.1-.1.2,0,0-.1.2-.2.3-4.4,5.7-4.9,13.5-5.2,19.9-.2,3.3-.4,6.3-1.1,8.4,0,.2-.1.4-.2.6-.1.3-.2.5-.3.8-.9,1.8-2.3,3.4-3.9,4.6-2.8,3.2-6.1,6-9.8,8.2.1,0,.3,0,.4,0,0,0,0,0,.1,0,6.8.4,13.8-2.9,18.2-9.8,2.4-3.8,2.7-10.5,2.9-17.2,9.3-1.4,27.8-15.2,13.1-20.6ZM100.6,39.1c0,.1,0,.2-.1.3-.3.7-.5,1.2-.8,1.8-1.1,1.8-2.9,3.4-5.5,4.4-.6.2-1.2.4-1.9.6-.3,0-.6,0-.5-.4.3-6.1,4.2-8.5,8.2-7.6.6.1.6.5.6.9Z"/>
    <path class="cls-2" d="M90.6,14.5c-1.2.3-.6.8,0,1.1,2.9,1.9,5.1,5.4,5.2,8.2,0,.5.5.6,1,.6,14.7,1.5,14.7,7.3,21.5,22.8.5,1,1,.8,1.1.2,2.5-19.9-9.7-37.1-28.7-33.1Z"/>
    <path class="cls-3" d="M37.2,39.4s0,0,0,0c0,0,0,0,0,.1,1.5,4,3.7,5.3,7.4,6.3-.2-2.5-1.1-4.4-2.5-5.5-1.3-1-3-1.3-4.8-.9Z"/>
    <path class="cls-3" d="M67.2,81.2c-2.7-.2-5.3-1-7.7-2.3,2.4,1.4,5,2.2,7.7,2.3Z"/>
    <path class="cls-3" d="M81.5,38.6c-1.6,3-3.4,6.3-10.1,5-.7-.1-1.2-.2-1.7-.3q-1.4-.3-3,0c-.4,0-.9.2-1.5.3-6.6,1.3-8.4-2-10-5-1.1-2.6-2-3.1-3.6-3.8-.7-.3-1.5-.7-2.4-1.3-3-2-4.4-4.9-4.2-8.2.3-3.8,2.9-7.4,6.7-9.1,5.2-2.4,15.1-3.7,23.6-3.3C67.4,4.9,56.4,0,44.3,0,20.1,0,.4,19.6.4,43.9s8.7,30.1,21.6,37.8c.1-1,.3-2.1.7-3.2C11.2,71.2,3.5,58.4,3.5,43.8,3.5,21.2,21.8,2.9,44.4,2.9s15,2.2,21.1,5.9v1.4c-6.1-3.9-13.4-6.1-21.1-6.1C22.5,4.1,4.7,21.9,4.7,43.8s7.4,26.5,18.4,33.5c1.7-4.1,5.2-8.9,10-15.5.2-.3.7-.7,1.2-.5.4,0,.6.4.7.8.4,2.5.9,4.7,1.4,6.8,1.3,5.2,2.3,9.5-.3,13.7,2.7.6,5.5.9,8.3.9s7.8-.6,11.4-1.7v1.2c-3.6,1-7.4,1.6-11.4,1.6s-6.1-.4-9.1-1c-.7.8-1.5,1.7-2.5,2.5,3.6,1,7.4,1.5,11.4,1.5,7.6,0,14.7-1.9,20.9-5.3-5.7-.9-11.1-4.6-14.6-10.2-2.4-3.8-2.8-10.2-3-17-6.8-1.3-17.9-8.5-18.6-14.9-.2-2.1.6-5,5.9-7,8.5-2.5,11.6.8,14.6,4,5.1,6.1,5.6,14.5,6,21.2.2,3.9.4,7.3,1.4,9.2,1.7,4.1,5.7,6.6,10.6,6.8,5.2.2,10.1-2.5,12.2-6.8,1-2,1.2-5.3,1.4-9.2.4-6.7.8-15.1,5.9-21.2.2-.2.3-.4.5-.5-.2-1-.4-2.1-.6-3.1l-.6.2c-2.6,1-3.5,1.4-4.9,4.7ZM42,24.3c0,.5-.3,1.2-1.6,1.3-12.1,1.2-13.8,5.3-18.3,16.2-.8,1.9-1.6,4-2.6,6.2-.5.9-1,1.1-1.4,1.1s-.1,0-.2,0c-.5,0-.8-.5-.9-1.1-1.4-11.6,1.9-22.3,8.9-28.7,5.5-5,12.8-6.8,20.7-5.2.3,0,1.1.2,1.3,1,.1.8-.6,1.3-1,1.5-2.7,1.7-4.8,5-4.9,7.6ZM67.1,70.8c-.2.1-.4.2-.6.2s-.5,0-.7-.2c-2.5-1.4-3.3-2.8-4.1-4.9-.2-.6-.2-1,0-1.4.2-.3.5-.5.9-.4,2.9,0,4.5,1.8,4.9,5.3h0c0,.6-.1,1.1-.6,1.4ZM74.9,65.9c-.8,2.1-1.6,3.5-4.1,4.9-.2.1-.5.2-.7.2s-.4,0-.6-.2c-.4-.3-.6-.8-.5-1.4.4-3.5,2.1-5.3,4.9-5.3.4,0,.7.2.9.4.2.3.3.8,0,1.4Z"/>
    <path class="cls-3" d="M55.5,23c-1.8.7-2.5,1.9-2.5,2.8,0,.7.2,1.3.8,1.7,4,1.2,6.6,3.8,7.9,7.9.5,1.1,1.1,1.1,1.8.9,3.2-1.1,6.4-1.1,9.5,0h0c.8.3,1.4.3,1.9-.9,1.3-4,3.9-6.6,7.9-7.8.7-.4,1-1.1.9-1.9-.1-1.1-1.1-2.1-2.5-2.7-7.2-2.5-18.3-3.3-25.8.1Z"/>
    <path class="cls-3" d="M83.5,28.7h-.2c-3.6,1.2-5.9,3.4-7.1,7-.8,1.8-2.1,2.4-3.7,1.8-2.9-1-5.7-1-8.6,0-.4.2-.8.2-1.2.2-1.1,0-1.9-.7-2.5-1.9-1.2-3.7-3.5-6-7.1-7h-.2c-1.1-.7-1.7-1.9-1.6-3.1.1-1.7,1.4-3.2,3.4-4,7.8-3.6,19.4-2.8,26.8-.2.1,0,.3.1.4.2-1.5-2.6-3.3-5-5.3-7.3-1.6-.1-3.2-.2-4.9-.2-7.4,0-15.3,1.2-19.6,3.2-3.3,1.5-5.6,4.7-5.9,8-.2,2.8,1,5.2,3.6,6.9.8.6,1.5.9,2.2,1.2,1.7.8,3,1.5,4.2,4.5,1.5,2.8,2.9,5.2,8.5,4.2.6-.1,1.1-.2,1.5-.3,1.9-.4,2-.4,3.6,0,.4,0,.9.2,1.6.3,5.6,1.1,7-1.4,8.5-4.2,1.5-3.8,2.9-4.3,5.6-5.4l.8-.3c-.5-1.7-1-3.4-1.7-5.1-.3.6-.7,1.1-1.4,1.5Z"/>
    <path class="cls-3" d="M70.4,69.4c1.9-1.1,2.5-2.2,3.2-3.9-1.3,0-2.8.7-3.2,3.9Z"/>
    <path class="cls-3" d="M77.1,73c-2.6,2-6,3-9.6,2.9-5.5-.2-9.9-3-11.8-7.6-1.1-2.2-1.3-5.7-1.6-9.8-.4-6.5-.8-14.6-5.6-20.3-2.2-2.3-4.1-4.4-8.1-4.4s-3,.2-5,.8c-3.5,1.3-5.2,3.2-4.9,5.5.6,5.8,11.6,12.8,17.9,13.7h.6c0,0,0,.7,0,.7.2,6.8.5,13.2,2.8,16.9,1.9,2.9,4.3,5.3,6.9,7,0,0,.2.1.3.2.2,0,.3.2.5.3,2.4,1.3,5.1,2.1,7.7,2.3,0,0,0,0,0,0,3.7-2.3,6.9-5,9.8-8.2ZM45.7,47.1c-.2.2-.4.2-.6.2s-.3,0-.4,0c-4.3-1.1-7-2.6-8.7-7.3-.2-.5-.2-.9,0-1.3.1-.2.4-.6,1-.7,2.2-.5,4.3,0,6,1.2,1.3,1,2.9,3.1,3.1,7,0,.5-.2.8-.4.9Z"/>
    <path class="cls-3" d="M63.1,65.5c.6,1.7,1.3,2.8,3.2,3.9-.4-3.1-1.8-3.8-3.2-3.9Z"/>
    <path class="cls-3" d="M26.9,20.4c-6.5,6-9.7,15.9-8.5,26.7.9-2.1,1.7-4.1,2.4-5.8,4.6-11.2,6.5-15.8,19.5-17.1.2,0,.3,0,.3,0,.2-3,2.4-6.6,5.4-8.6-1.8-.4-3.5-.5-5.1-.5-5.3,0-10.1,1.8-14,5.4Z"/>
  </g>
  <g>
    <path class="cls-3" d="M5,129.2h.8v9.1h-.9l-4-7.3v7.3H0v-9.1h.9l4.1,7.5v-7.5Z"/>
    <path class="cls-3" d="M7.6,138.3h-.8v-6.1c0-1.6,1.3-2.9,2.9-2.9s2.9,1.3,2.9,2.9v6.1h-.8v-4.1h-4.1v4.1ZM7.6,133.3h4.1v-1.2c0-1.1-.9-2-2-2s-2.1.9-2.1,2v1.2Z"/>
    <path class="cls-3" d="M19.2,138.3h-5.8v-9h5.8v.8h-4.9v3.3h2.5v.8h-2.5v3.3h4.9v.8Z"/>
    <path class="cls-3" d="M25.8,138.3h-5.8v-9h5.8v.8h-4.9v3.3h2.5v.8h-2.5v3.3h4.9v.8Z"/>
    <path class="cls-3" d="M32.5,129.2v9.1h-.8v-7.4l-1.5,2.9h-1l-1.5-2.9v7.4h-.8v-9.1h.9l2,3.7,2-3.7h.9Z"/>
    <path class="cls-3" d="M39.1,138.3h-5.8v-9h5.8v.8h-4.9v3.3h2.5v.8h-2.5v3.3h4.9v.8Z"/>
    <path class="cls-3" d="M44.3,138.3h-.8v-6.1c0-1.6,1.3-2.9,2.9-2.9s2.9,1.3,2.9,2.9v6.1h-.8v-4.1h-4.1v4.1ZM44.3,133.3h4.1v-1.2c0-1.1-.9-2-2-2s-2.1.9-2.1,2v1.2Z"/>
    <path class="cls-3" d="M55.9,138.3h-5.8v-9h.8v8.2h4.9v.8Z"/>
    <path class="cls-3" d="M61.7,136.2c0-.3-.2-.6-.5-.9l-3.5-2.4c-.6-.4-.9-1-.9-1.5s.3-1.1.9-1.5c.5-.4,1.2-.6,2-.6s1.5.2,2,.6c.6.4.9.9.9,1.5v.4s-.8,0-.8,0v-.4c0-.3-.2-.6-.5-.8-.4-.3-.9-.4-1.5-.4s-1.1.2-1.5.4c-.3.2-.5.5-.5.9s.2.6.5.9l3.5,2.4c.6.4.9,1,.9,1.5s-.3,1.1-.9,1.5c-.5.4-1.2.6-2,.6s-1.5-.2-2-.6c-.6-.4-.9-.9-.9-1.5v-.4s.8,0,.8,0v.4c0,.3.2.6.5.8.4.3.9.4,1.5.4s1.1-.2,1.5-.4c.3-.2.5-.5.5-.9Z"/>
    <path class="cls-3" d="M68.4,129.2h.8v9h-.8v-4.1h-4.1v4.1h-.8v-9h.8v4.1h4.1v-4.1Z"/>
    <path class="cls-3" d="M75.9,138.3h-5.8v-9h5.8v.8h-4.9v3.3h2.5v.8h-2.5v3.3h4.9v.8Z"/>
    <path class="cls-3" d="M82.5,129.2v9.1h-.8v-7.4l-1.5,2.9h-1l-1.5-2.9v7.4h-.8v-9.1h.9l2,3.7,2-3.7h.9Z"/>
    <path class="cls-3" d="M84.2,138.3h-.8v-6.1c0-1.6,1.3-2.9,2.9-2.9s2.9,1.3,2.9,2.9v6.1h-.8v-4.1h-4.1v4.1ZM84.2,133.3h4.1v-1.2c0-1.1-.9-2-2-2s-2.1.9-2.1,2v1.2Z"/>
    <path class="cls-3" d="M95.8,138.3h-5.8v-9h.8v8.2h4.9v.8Z"/>
    <path class="cls-3" d="M105.9,138.3h-5.8v-9h5.8v.8h-4.9v3.3h2.5v.8h-2.5v3.3h4.9v.8Z"/>
    <path class="cls-3" d="M111.7,136.2c0-.3-.2-.6-.5-.9l-3.5-2.4c-.6-.4-.9-1-.9-1.5s.3-1.1.9-1.5c.5-.4,1.2-.6,2-.6s1.5.2,2,.6c.6.4.9.9.9,1.5v.4s-.8,0-.8,0v-.4c0-.3-.2-.6-.5-.8-.4-.3-.9-.4-1.5-.4s-1.1.2-1.5.4c-.3.2-.5.5-.5.9s.2.6.5.9l3.5,2.4c.6.4.9,1,.9,1.5s-.3,1.1-.9,1.5c-.5.4-1.2.6-2,.6s-1.5-.2-2-.6c-.6-.4-.9-.9-.9-1.5v-.4s.8,0,.8,0v.4c0,.3.2.6.5.8.4.3.9.4,1.5.4s1.1-.2,1.5-.4c.3-.2.5-.5.5-.9Z"/>
    <path class="cls-3" d="M115.9,138.3v-8.2h-2.5v-.8h5.8v.8h-2.5v8.2h-.8Z"/>
  </g>
  <g>
    <path class="cls-1" d="M108.9,114.5c-.5,0-.9.2-1.1.5-.3.4-.4.8-.4,1.4s.1,1,.4,1.3c.3.3.6.4,1.1.4h1.5c0-.3,0-.8,0-1.3,0-.8-.1-1.4-.4-1.8-.2-.4-.6-.6-1.1-.6Z"/>
    <path class="cls-1" d="M68.1,115.1c-.2-.2-.4-.3-.8-.3h-2.7c0,0,.2.3.3.5.1.3.2.6.4.9.1.3.3.6.4.9.1.3.3.6.5.8.2.2.3.3.5.3.3,0,.6-.1.9-.4.3-.3.5-.6.7-.9.2-.4.3-.7.3-1s0-.6-.3-.8Z"/>
    <path class="cls-1" d="M79.3,115.1c-.3.3-.4.7-.4,1.2s.1.8.4,1.1c.3.3.6.4,1,.4s.5,0,.7-.1c.2,0,.4-.3.5-.5.1-.2.2-.5.2-.8v-1.7h-1.5c-.4,0-.8.1-1,.5Z"/>
    <path class="cls-1" d="M57.8,114.8c-.5,0-.9.2-1.2.5-.3.3-.5.8-.5,1.4s.1,1.1.5,1.4c.3.3.7.5,1.2.5s.9-.2,1.2-.5c.3-.3.5-.8.5-1.4s-.1-1.1-.5-1.4c-.3-.3-.7-.5-1.2-.5Z"/>
    <path class="cls-1" d="M14.8,114.8c-.5,0-.9.2-1.2.5-.3.3-.5.8-.5,1.4s.1,1.1.5,1.4c.3.3.7.5,1.2.5s.9-.2,1.2-.5c.3-.3.5-.8.5-1.4s-.1-1.1-.5-1.4c-.3-.3-.7-.5-1.2-.5Z"/>
    <path class="cls-1" d="M116.5,114.4c-.5,0-.9.2-1.2.5-.3.3-.5.8-.5,1.3s.2,1,.5,1.4c.3.4.7.5,1.2.5s.9-.2,1.2-.5c.3-.3.5-.8.5-1.4s-.1-1.1-.5-1.4c-.3-.3-.7-.5-1.2-.5Z"/>
    <path class="cls-2" d="M18.9,119v-.6c0,0,0-.1,0-.1,0,0,.1,0,.2,0,0,0,0,0,0,0h-.4c-.4,0-.7-.1-.9-.3-.2-.2-.3-.6-.3-1.1h0c0-1-.2-1.7-.7-2.2-.5-.5-1.1-.7-2-.7s-1.5.3-2,.7c-.5.5-.7,1.2-.7,2.1h0c0,.6-.1,1-.3,1.2-.2.2-.5.3-.9.3h-.4s0,0,0,0c0,0,0,0,.1,0,0,0,0,0,0,0,0,0,0,0,0,.1v.6c0,0,0,.1-.2.1,0,0,0,0,0,0h.4c.3,0,.6,0,.9-.3.3-.2.5-.4.7-.7.2.4.5.7.9.9.4.2.9.3,1.4.3,1.1,0,1.9-.4,2.4-1.3.1.3.4.5.7.7.3.2.6.3.9.3h.4s0,0,0,0c-.2,0-.2,0-.2-.1ZM16,118c-.3.3-.7.5-1.2.5s-.9-.2-1.2-.5c-.3-.3-.5-.8-.5-1.4s.1-1.1.5-1.4c.3-.3.7-.5,1.2-.5s.9.2,1.2.5c.3.3.5.8.5,1.4s-.1,1.1-.5,1.4Z"/>
    <path class="cls-2" d="M30.2,119v-.6c0,0,0-.1,0-.1,0,0,.1,0,.2,0,0,0,0,0,0,0h-.7c-.3,0-.5-.1-.7-.3-.2-.2-.3-.5-.3-.8v-2.8h-1v2.8c0,.4,0,.7-.3.9s-.5.3-.9.3-.8-.1-1-.3c-.2-.2-.4-.5-.4-.9v-2.5h-1v2.6c0,.4-.1.7-.3.9-.2.2-.5.3-.9.3-.8,0-1.2-.4-1.2-1.1v-2.4h-1v2.3c0,.4,0,.7-.2.9-.1.2-.3.3-.5.3h-1.1s0,0,0,0c0,0,0,0,.1,0,0,0,0,0,0,0,0,0,0,0,0,.1v.6c0,0,0,.1-.2.1,0,0,0,0,0,0h1.2c.7,0,1.1-.3,1.3-.8h0c0,.1.1.3.2.4.1.1.2.2.4.3.1,0,.3.1.4.1.1,0,.3,0,.5,0,.4,0,.7,0,1-.2.3-.1.5-.4.7-.6h0c0,.2.2.4.5.5.2.1.4.2.7.3.2,0,.4,0,.7,0,.4,0,.7,0,1.1-.3.3-.2.5-.4.7-.7h0c0,.3.2.5.5.7.3.2.5.3.7.3h.7s0,0,0,0c-.2,0-.2,0-.2-.1Z"/>
    <path class="cls-2" d="M19.4,119v-.6s0,0,0-.1c0,0,0,0,0,0,0,0,0,0-.1,0,0,0-.1,0-.2,0,0,0,0,0,0,.1v.6c0,0,0,.1.2.1.2,0,.2,0,.2-.1Z"/>
    <rect class="cls-2" x="44.6" y="123" width="1" height="1.3"/>
    <path class="cls-2" d="M32.3,118.2h-1.9s0,0,0,0c0,0,0,0,.1,0,0,0,0,0,0,0,0,0,0,0,0,.1v.6c0,0,0,.1-.2.1,0,0,0,0,0,0h2.9v-8.2h-1v7.2Z"/>
    <path class="cls-2" d="M30.7,119v-.6s0,0,0-.1c0,0,0,0,0,0,0,0,0,0-.1,0,0,0-.1,0-.2,0,0,0,0,0,0,.1v.6c0,0,0,.1.2.1.2,0,.2,0,.2-.1Z"/>
    <rect class="cls-2" x="34.8" y="110.9" width="1" height="8.2"/>
    <rect class="cls-2" x="42.7" y="123" width="1" height="1.3"/>
    <path class="cls-2" d="M6.1,117c0,.7,0,1.3-.2,1.8-.1.5-.3.9-.5,1.2-.2.3-.5.5-.8.7-.3.1-.7.2-1.1.2s-.9,0-1.2-.2c-.3-.1-.6-.3-.8-.7-.2-.3-.3-.7-.4-1.2,0-.5-.1-1.1-.1-1.9h-.9c0,.6,0,1.2,0,1.6,0,.5.1.9.3,1.3.1.4.3.8.6,1,.3.3.6.5,1,.6.4.2.9.2,1.4.2s1,0,1.5-.2c.4-.2.8-.4,1-.7s.5-.6.7-1.1c.2-.4.3-.9.4-1.4,0-.5.1-1.1.1-1.7v-5.9h-1v6Z"/>
    <path class="cls-2" d="M10.8,119v-.6s0,0,0-.1c0,0,0,0,0,0,0,0,0,0-.1,0s-.1,0-.2,0c0,0,0,0,0,.1v.6c0,0,0,.1.2.1.2,0,.2,0,.2-.1Z"/>
    <rect class="cls-2" x="81.4" y="111.5" width="1" height="1.3"/>
    <path class="cls-2" d="M110,112.3h-.9c-.3,0-.4-.1-.4-.4s0-.2,0-.3c0,0,.1-.1.2-.1.2,0,.3.1.3.3h.6c0-.3-.1-.5-.3-.6s-.4-.2-.7-.2-.5,0-.7.2c-.2.1-.3.4-.3.6s0,.3.2.4h0s-.4,0-.4,0v.5h2.1v-.5Z"/>
    <rect class="cls-2" x="24.4" y="110.3" width="1" height="1.3"/>
    <rect class="cls-2" x="79.4" y="111.5" width="1" height="1.3"/>
    <path class="cls-2" d="M10.3,119v-.6c0,0,0-.1,0-.1,0,0,.1,0,.2,0,0,0,0,0,0,0h-1v-7.2h-1v8.2h2s0,0,0,0c-.2,0-.2,0-.2-.1Z"/>
    <rect class="cls-2" x="58.3" y="119.8" width="1" height="1.3"/>
    <rect class="cls-2" x="25.4" y="112" width="1" height="1.3"/>
    <rect class="cls-2" x="23.4" y="112" width="1" height="1.3"/>
    <path class="cls-2" d="M72.8,118.2h-2.3s0,0,0,0c0,0,0,0,.1,0,0,0,0,0,0,0,0,0,0,0,0,.1v.6c0,0,0,.1-.2.1,0,0,0,0,0,0h3.2v-4.9h-1v3.9Z"/>
    <rect class="cls-2" x="72.8" y="112" width="1" height="1.3"/>
    <path class="cls-2" d="M113.2,119v-.6s0,0,0-.1c0,0,0,0,0,0,0,0,0,0-.1,0,0,0-.1,0-.2,0,0,0,0,0,0,.1v.6c0,0,0,.1.2.1.2,0,.2,0,.2-.1Z"/>
    <path class="cls-2" d="M112.7,119v-.6c0,0,0-.1,0-.1,0,0,.1,0,.2,0,0,0,0,0,0,0h-1.6c0-.5,0-.9,0-1.3,0-.6,0-1-.1-1.5,0-.4-.2-.8-.4-1.1-.2-.3-.5-.5-.8-.7-.3-.1-.7-.2-1.2-.2s-.7,0-1,.2c-.3.1-.5.3-.7.4-.2.2-.4.4-.5.7-.1.3-.2.5-.3.8s0,.6,0,.9c0,.8.2,1.4.7,1.9.5.5,1.1.8,1.9.8h1.3c0,.4-.2.7-.3.9-.1.2-.3.4-.5.6-.2.1-.4.2-.6.3-.2,0-.5,0-.9,0s-.6,0-.9-.2v.9h.1c0,0,.2.1.4.1.2,0,.4,0,.5,0,.9,0,1.6-.2,2.1-.6.5-.4.8-1.1,1-2.1h1.7s0,0,0,0c-.2,0-.2,0-.2-.1ZM110.4,118.2h-1.5c-.5,0-.9-.1-1.1-.4-.3-.3-.4-.7-.4-1.3s.1-1.1.4-1.4c.3-.4.6-.5,1.1-.5s.9.2,1.1.6c.2.4.4,1,.4,1.8s0,1,0,1.3Z"/>
    <path class="cls-2" d="M84,119v-.6c0,0,0-.1,0-.1,0,0,.1,0,.2,0,0,0,0,0,0,0h-.3c-.7,0-1.1-.5-1.1-1.4v-3.1h-2.4c-.3,0-.7,0-.9.1-.3,0-.5.2-.7.4-.2.2-.3.3-.5.6-.1.2-.2.5-.3.7,0,.3,0,.5,0,.8s0,.8.2,1.1c.1.3.3.6.5.8.2.2.5.3.8.4.3,0,.6.1.9.1s.7,0,1-.3c.3-.2.5-.4.7-.7.1.4.4.7.7.9.3.3.7.4,1.2.4h.3s0,0,0,0c-.2,0-.2,0-.2-.1ZM81.8,116.3c0,.3,0,.6-.2.8-.1.2-.3.4-.5.5-.2,0-.5.1-.7.1-.4,0-.7-.1-1-.4-.3-.3-.4-.6-.4-1.1s.1-.9.4-1.2c.3-.3.6-.5,1-.5h1.5v1.7Z"/>
    <path class="cls-2" d="M70.7,119v-.6s0,0,0-.1c0,0,0,0,0,0,0,0,0,0-.1,0,0,0-.1,0-.2,0,0,0,0,0,0,.1v.6c0,0,0,.1.2.1.2,0,.2,0,.2-.1Z"/>
    <path class="cls-2" d="M104.1,118.2h-1.6c-.3,0-.5,0-.7-.3-.2-.2-.3-.5-.3-.9v-2.6h-1v2.6c0,.4-.1.7-.3.9-.2.2-.5.3-.9.3s-.7,0-.9-.3c-.2-.2-.3-.5-.3-.9v-2.4h-1v2.3c0,.4,0,.7-.2.9-.1.2-.3.3-.5.3h-1.1s0,0,0,0c0,0,0,0,.1,0,0,0,0,0,0,0,0,0,0,0,0,.1v.6c0,0,0,.1-.2.1,0,0,0,0,0,0h1.2c.7,0,1.1-.3,1.3-.8h0c0,.1.1.3.2.4.1.1.2.2.4.3.1,0,.3.1.4.1.1,0,.3,0,.5,0,.4,0,.7,0,1-.2.3-.2.5-.4.7-.7h0c0,.3.2.5.5.7.3.2.5.2.7.2h2.6v-4.9h-1v3.9Z"/>
    <path class="cls-2" d="M95.7,119v-.6s0,0,0-.1c0,0,0,0,0,0,0,0,0,0-.1,0,0,0-.1,0-.2,0,0,0,0,0,0,.1v.6c0,0,0,.1.2.1.2,0,.2,0,.2-.1Z"/>
    <path class="cls-2" d="M84.5,119v-.6s0,0,0-.1c0,0,0,0,0,0,0,0,0,0-.1,0,0,0-.1,0-.2,0,0,0,0,0,0,.1v.6c0,0,0,.1.2.1.2,0,.2,0,.2-.1Z"/>
    <path class="cls-2" d="M95.3,119v-.6c0,0,0-.1,0-.1,0,0,.1,0,.2,0,0,0,0,0,0,0h-.7c-.3,0-.5-.1-.7-.3-.2-.2-.3-.5-.3-.8v-2.8h-1v2.8c0,.4,0,.7-.3.9s-.5.3-.9.3-.8-.1-1-.3c-.2-.2-.4-.5-.4-.9v-2.5h-1v2.6c0,.4-.1.7-.3.9-.2.2-.5.3-.9.3-.8,0-1.2-.4-1.2-1.1v-2.4h-1v2.3c0,.4,0,.7-.2.9-.1.2-.3.3-.5.3h-1.1s0,0,0,0c0,0,0,0,.1,0,0,0,0,0,0,0,0,0,0,0,0,.1v.6c0,0,0,.1-.2.1,0,0,0,0,0,0h1.2c.7,0,1.1-.3,1.3-.8h0c0,.1.1.3.2.4.1.1.2.2.4.3.1,0,.3.1.4.1.1,0,.3,0,.5,0,.4,0,.7,0,1-.2.3-.1.5-.4.7-.6h0c0,.2.2.4.5.5.2.1.4.2.7.3.2,0,.4,0,.7,0,.4,0,.7,0,1.1-.3.3-.2.5-.4.7-.7h0c0,.3.2.5.5.7.3.2.5.3.7.3h.7s0,0,0,0c-.2,0-.2,0-.2-.1Z"/>
    <path class="cls-2" d="M57,119v-.6s0,0,0-.1c0,0,0,0-.1,0,0,0-.1,0-.2,0s-.2,0-.3,0c0,0,0,0,0,.1v.6c0,0,.1.1.4.1.2,0,.4,0,.4-.1Z"/>
    <path class="cls-2" d="M47.8,119v-.6c0,0,0-.1,0-.1,0,0,.1,0,.2,0,0,0,0,0,0,0h-1.6c-.3,0-.6,0-.9-.1-.4,0-.6-.1-.8-.3v.9c.2.1.4.2.6.3.2,0,.4.1.6.1s.3,0,.5.2c.1.1.2.3.2.5,0,.3-.1.6-.4.8-.3.2-.6.4-1,.5-.4.1-.8.1-1.4.1-1.1,0-1.9-.3-2.4-.9-.5-.6-.8-1.4-.8-2.6h-.9c0,.5,0,1,.2,1.5.1.4.3.8.5,1.2.2.4.5.7.8.9.3.3.7.4,1.2.6s1,.2,1.5.2c1.1,0,1.9-.2,2.6-.6.6-.4.9-.9.9-1.6s0-.3,0-.5c0-.2-.1-.3-.2-.4h.9s0,0,0,0c-.2,0-.2,0-.2-.1Z"/>
    <path class="cls-2" d="M48.3,119v-.6s0,0,0-.1c0,0,0,0,0,0,0,0,0,0-.1,0,0,0-.1,0-.2,0,0,0,0,0,0,.1v.6c0,0,0,.1.2.1.2,0,.2,0,.2-.1Z"/>
    <path class="cls-2" d="M118.4,114.2c-.5-.5-1.1-.7-2-.7s-1.5.2-2,.7c-.5.5-.7,1.2-.7,2.1s0,.7.2,1.1c.1.4.3.6.5.8h0s-1.6,0-1.6,0c0,0,0,0,0,0,0,0,0,0,.1,0,0,0,0,0,0,0,0,0,0,0,0,.1v.6c0,0,0,.1-.2.1,0,0,0,0,0,0h3.5c.9,0,1.5-.2,2-.7s.7-1.2.7-2.1-.2-1.6-.7-2.1ZM117.7,117.7c-.3.3-.7.5-1.2.5s-.9-.2-1.2-.5c-.3-.3-.5-.8-.5-1.4s.2-1,.5-1.3c.3-.3.7-.5,1.2-.5s.9.2,1.2.5c.3.3.5.8.5,1.4s-.1,1.1-.5,1.4Z"/>
    <path class="cls-2" d="M70.3,119v-.6c0,0,0-.1,0-.1,0,0,.1,0,.2,0,0,0,0,0,0,0h-2.2s0,0,0,0c.3-.3.6-.7.8-1.1.2-.4.3-.8.3-1.1,0-.6-.2-1.1-.5-1.5-.3-.4-.8-.6-1.4-.6h-4.3v.2c.2.2.4.5.5.9.2.4.3.8.5,1.2.1.4.3.8.5,1.2.2.4.4.7.5.8h0s-3,0-3,0h-.5c-.4,0-.7-.1-1-.4-.3-.3-.4-.7-.4-1.1v-2.4h-1v2.8c0,.4,0,.7-.3.9-.2.2-.4.3-.7.3h-1.7s0,0,0,0c0,0,0,0,0,0h-.4c-.4,0-.7-.1-.9-.3s-.3-.6-.3-1.1h0c0-1-.2-1.7-.7-2.2-.5-.5-1.1-.7-2-.7s-1.5.3-2,.7c-.5.5-.7,1.2-.7,2.1h0c0,.6-.1,1-.3,1.2s-.5.3-.9.3h-.4s0,0,0,0c0,0,0,0,.1,0,0,0,0,0,0,0,0,0,0,0,0,.1v.6c0,0,0,.1-.2.1,0,0,0,0,0,0h.4c.3,0,.6,0,.9-.3.3-.2.5-.4.7-.7.2.4.5.7.9.9.4.2.9.3,1.4.3,1.1,0,1.9-.4,2.4-1.3.1.3.4.5.7.7.3.2.6.3.9.3h.4s0,0,0,0c0,0,0,0,0,0h1.6c.3,0,.7,0,1-.3.3-.2.5-.4.7-.7.1.3.3.5.7.7.3.2.7.3,1,.3h8.9s0,0,0,0c-.2,0-.2,0-.2-.1ZM53.6,118c-.3.3-.7.5-1.2.5s-.9-.2-1.2-.5c-.3-.3-.5-.8-.5-1.4s.1-1.1.5-1.4c.3-.3.7-.5,1.2-.5s.9.2,1.2.5c.3.3.5.8.5,1.4s-.1,1.1-.5,1.4ZM56.9,119c0,0,0,.1-.2.1-.2,0-.2,0-.2-.1v-.6c0,0,0-.1,0-.1,0,0,.1,0,.2,0,0,0,0,0,.1,0,0,0,0,0,0,0,0,0,0,0,0,.1v.6ZM67.4,117.9c-.3.3-.6.4-.9.4s-.3-.1-.5-.3c-.2-.2-.3-.5-.5-.8-.1-.3-.3-.6-.4-.9-.1-.3-.2-.6-.4-.9-.1-.3-.2-.5-.3-.5h2.7c.4,0,.7,0,.8.3.2.2.3.5.3.8s0,.7-.3,1c-.2.4-.4.7-.7.9Z"/>
    <rect class="cls-2" x="60.3" y="119.8" width="1" height="1.3"/>
  </g>
</svg>